<svg xmlns="http://www.w3.org/2000/svg" xmlns:xlink="http://www.w3.org/1999/xlink" width="200" viewBox="0 0 150 112.499997" height="150" preserveAspectRatio="xMidYMid meet"><defs><g></g><clipPath id="f53cdae1ca"><path d="M 37.695312 23 L 80 23 L 80 66 L 37.695312 66 Z M 37.695312 23 " clip-rule="nonzero"></path></clipPath><clipPath id="d2909e1578"><path d="M 37.695312 23 L 80 23 L 80 79.671875 L 37.695312 79.671875 Z M 37.695312 23 " clip-rule="nonzero"></path></clipPath><clipPath id="0764670cd5"><path d="M 52 7.683594 L 65 7.683594 L 65 66 L 52 66 Z M 52 7.683594 " clip-rule="nonzero"></path></clipPath></defs><path fill="#8152dd" d="M 81.488281 52.710938 L 81.488281 65.175781 L 93.980469 65.175781 L 93.980469 52.710938 Z M 52.472656 50.441406 L 64.953125 50.441406 L 64.953125 37.976562 L 52.472656 37.976562 Z M 52.472656 50.441406 " fill-opacity="1" fill-rule="nonzero"></path><g clip-path="url(#f53cdae1ca)"><path fill="#a6a6a6" d="M 52.472656 35.710938 L 64.953125 35.710938 L 64.953125 23.246094 L 52.472656 23.246094 Z M 37.820312 50.441406 L 50.3125 50.441406 L 50.3125 37.976562 L 37.820312 37.976562 Z M 67.074219 52.808594 L 67.074219 65.269531 L 79.5625 65.269531 L 79.5625 52.808594 Z M 67.074219 52.808594 " fill-opacity="1" fill-rule="nonzero"></path></g><g clip-path="url(#d2909e1578)"><path fill="#545454" d="M 38.03125 35.519531 L 50.539062 35.519531 L 50.539062 23.054688 L 38.03125 23.054688 Z M 67.101562 37.976562 L 67.101562 50.441406 L 79.597656 50.441406 L 79.597656 37.976562 Z M 37.820312 65.09375 L 50.3125 65.09375 L 50.3125 52.628906 L 37.820312 52.628906 Z M 66.953125 79.664062 L 79.449219 79.664062 L 79.449219 67.199219 L 66.953125 67.199219 Z M 66.953125 79.664062 " fill-opacity="1" fill-rule="nonzero"></path></g><g clip-path="url(#0764670cd5)"><path fill="#03989e" d="M 52.449219 65.417969 L 64.953125 65.417969 L 64.953125 52.941406 L 52.449219 52.941406 Z M 52.46875 7.683594 L 52.46875 20.148438 L 64.953125 20.148438 L 64.953125 7.683594 Z M 52.46875 7.683594 " fill-opacity="1" fill-rule="nonzero"></path></g><g fill="#d9d9d9" fill-opacity="1"><g transform="translate(7.376009, 96.64387)"><g><path d="M 7.808594 0 C 12.691406 0 15.734375 -2.851562 15.734375 -7.273438 C 15.734375 -11.855469 12.390625 -14.527344 7.777344 -14.527344 L 1.101562 -14.527344 L 1.101562 0 Z M 6.164062 -10.117188 L 7.691406 -10.117188 C 9.601562 -10.117188 10.574219 -8.972656 10.574219 -7.230469 C 10.574219 -5.457031 9.519531 -4.410156 7.691406 -4.410156 L 6.164062 -4.410156 Z M 6.164062 -10.117188 "></path></g></g></g><g fill="#d9d9d9" fill-opacity="1"><g transform="translate(24.095896, 96.64387)"><g><path d="M 5.574219 0.394531 C 6.890625 0.394531 8.011719 -0.0429688 8.78125 -0.929688 L 8.960938 0 L 13.332031 0 L 13.332031 -11.214844 L 8.960938 -11.214844 L 8.78125 -10.265625 C 8.023438 -11.164062 6.890625 -11.601562 5.542969 -11.601562 C 2.648438 -11.601562 0.417969 -9.046875 0.417969 -5.597656 C 0.417969 -2.0625 2.703125 0.394531 5.574219 0.394531 Z M 6.859375 -3.769531 C 5.972656 -3.769531 5.214844 -4.347656 5.214844 -5.609375 C 5.214844 -6.792969 5.9375 -7.433594 6.859375 -7.433594 C 7.796875 -7.433594 8.503906 -6.644531 8.503906 -5.609375 C 8.503906 -4.539062 7.808594 -3.769531 6.859375 -3.769531 Z M 6.859375 -3.769531 "></path></g></g></g><g fill="#d9d9d9" fill-opacity="1"><g transform="translate(38.914591, 96.64387)"><g><path d="M 9.058594 0 L 9.058594 -3.695312 L 7.476562 -3.695312 C 6.921875 -3.695312 6.613281 -4.070312 6.613281 -4.691406 L 6.613281 -7.457031 L 9.058594 -7.457031 L 9.058594 -11.214844 L 6.613281 -11.214844 L 6.613281 -14.304688 L 2.488281 -14.28125 L 1.890625 -11.214844 L 0.0742188 -11.214844 L 0.0742188 -7.457031 L 1.75 -7.457031 L 1.75 -4.507812 C 1.75 -0.375 4.292969 0 6.292969 0 Z M 9.058594 0 "></path></g></g></g><g fill="#d9d9d9" fill-opacity="1"><g transform="translate(49.055068, 96.64387)"><g><path d="M 5.574219 0.394531 C 6.890625 0.394531 8.011719 -0.0429688 8.78125 -0.929688 L 8.960938 0 L 13.332031 0 L 13.332031 -11.214844 L 8.960938 -11.214844 L 8.78125 -10.265625 C 8.023438 -11.164062 6.890625 -11.601562 5.542969 -11.601562 C 2.648438 -11.601562 0.417969 -9.046875 0.417969 -5.597656 C 0.417969 -2.0625 2.703125 0.394531 5.574219 0.394531 Z M 6.859375 -3.769531 C 5.972656 -3.769531 5.214844 -4.347656 5.214844 -5.609375 C 5.214844 -6.792969 5.9375 -7.433594 6.859375 -7.433594 C 7.796875 -7.433594 8.503906 -6.644531 8.503906 -5.609375 C 8.503906 -4.539062 7.808594 -3.769531 6.859375 -3.769531 Z M 6.859375 -3.769531 "></path></g></g></g><g fill="#d9d9d9" fill-opacity="1"><g transform="translate(63.873762, 96.64387)"><g><path d="M 5.886719 0 L 5.886719 -7.304688 L 5.917969 -7.304688 L 8.675781 -2.476562 L 10.265625 -2.476562 L 13.0625 -7.285156 L 13.097656 -7.285156 L 13.097656 0 L 17.871094 0 L 17.871094 -14.527344 L 13.320312 -14.527344 L 9.484375 -8.363281 L 9.464844 -8.363281 L 5.683594 -14.527344 L 1.101562 -14.527344 L 1.101562 0 Z M 5.886719 0 "></path></g></g></g><g fill="#d9d9d9" fill-opacity="1"><g transform="translate(83.477482, 96.64387)"><g><path d="M 5.574219 0.394531 C 6.890625 0.394531 8.011719 -0.0429688 8.78125 -0.929688 L 8.960938 0 L 13.332031 0 L 13.332031 -11.214844 L 8.960938 -11.214844 L 8.78125 -10.265625 C 8.023438 -11.164062 6.890625 -11.601562 5.542969 -11.601562 C 2.648438 -11.601562 0.417969 -9.046875 0.417969 -5.597656 C 0.417969 -2.0625 2.703125 0.394531 5.574219 0.394531 Z M 6.859375 -3.769531 C 5.972656 -3.769531 5.214844 -4.347656 5.214844 -5.609375 C 5.214844 -6.792969 5.9375 -7.433594 6.859375 -7.433594 C 7.796875 -7.433594 8.503906 -6.644531 8.503906 -5.609375 C 8.503906 -4.539062 7.808594 -3.769531 6.859375 -3.769531 Z M 6.859375 -3.769531 "></path></g></g></g><g fill="#d9d9d9" fill-opacity="1"><g transform="translate(98.296176, 96.64387)"><g><path d="M 9.058594 0 L 9.058594 -3.695312 L 7.476562 -3.695312 C 6.921875 -3.695312 6.613281 -4.070312 6.613281 -4.691406 L 6.613281 -7.457031 L 9.058594 -7.457031 L 9.058594 -11.214844 L 6.613281 -11.214844 L 6.613281 -14.304688 L 2.488281 -14.28125 L 1.890625 -11.214844 L 0.0742188 -11.214844 L 0.0742188 -7.457031 L 1.75 -7.457031 L 1.75 -4.507812 C 1.75 -0.375 4.292969 0 6.292969 0 Z M 9.058594 0 "></path></g></g></g><g fill="#d9d9d9" fill-opacity="1"><g transform="translate(108.436653, 96.64387)"><g><path d="M 5.714844 0 L 5.714844 -4.808594 C 5.714844 -6.484375 6.527344 -7.457031 7.957031 -7.457031 L 9.207031 -7.457031 L 9.207031 -11.214844 L 7.746094 -11.214844 C 6.65625 -11.214844 6.003906 -10.746094 5.457031 -10.007812 L 5.246094 -11.214844 L 0.855469 -11.214844 L 0.855469 0 Z M 5.714844 0 "></path></g></g></g><g fill="#d9d9d9" fill-opacity="1"><g transform="translate(118.438279, 96.64387)"><g><path d="M 3.289062 -11.792969 C 5.136719 -11.792969 6.015625 -12.648438 6.015625 -13.910156 C 6.015625 -15.136719 5.136719 -16.023438 3.300781 -16.023438 C 1.484375 -16.023438 0.609375 -15.136719 0.609375 -13.910156 C 0.609375 -12.679688 1.496094 -11.792969 3.289062 -11.792969 Z M 5.714844 0 L 5.714844 -11.109375 C 4.335938 -10.886719 2.371094 -10.886719 0.855469 -11.109375 L 0.855469 0 Z M 5.714844 0 "></path></g></g></g><g fill="#d9d9d9" fill-opacity="1"><g transform="translate(125.630838, 96.64387)"><g><path d="M 5.480469 0 L 6.664062 -3.3125 L 6.742188 -3.3125 L 7.9375 0 L 13.480469 0 L 10.5 -5.855469 L 13.222656 -11.214844 L 7.796875 -11.214844 L 6.773438 -8.152344 L 6.699219 -8.152344 L 5.683594 -11.214844 L 0.234375 -11.214844 L 2.957031 -5.800781 L 0 0 Z M 5.480469 0 "></path></g></g></g><g fill="#8152dd" fill-opacity="1"><g transform="translate(125.101707, 83.947646)"><g><path d="M 10.6875 -7.773438 C 9.726562 -7.773438 9.011719 -7.445312 8.132812 -6.519531 C 7.671875 -7.328125 6.90625 -7.773438 5.820312 -7.773438 C 4.832031 -7.773438 4.109375 -7.394531 3.636719 -6.855469 L 3.472656 -7.515625 L 0.574219 -7.515625 L 0.574219 0 L 3.808594 0 L 3.808594 -3.628906 C 3.808594 -4.460938 4.179688 -4.980469 4.679688 -4.980469 C 5.109375 -4.980469 5.433594 -4.6875 5.433594 -3.859375 L 5.433594 0 L 8.667969 0 L 8.667969 -3.628906 C 8.667969 -4.460938 9.046875 -4.980469 9.546875 -4.980469 C 9.96875 -4.980469 10.300781 -4.6875 10.300781 -3.859375 L 10.300781 0 L 13.535156 0 L 13.535156 -3.992188 C 13.535156 -6.363281 12.625 -7.773438 10.6875 -7.773438 Z M 10.6875 -7.773438 "></path></g></g></g><g fill="#8152dd" fill-opacity="1"><g transform="translate(139.161579, 83.947646)"><g><path d="M 3.828125 0 L 3.828125 -10.09375 L 0.574219 -10.09375 L 0.574219 0 Z M 3.828125 0 "></path></g></g></g></svg>